<?xml version="1.0" encoding="utf-8"?>
<!-- Generator: Adobe Illustrator 26.1.0, SVG Export Plug-In . SVG Version: 6.00 Build 0)  -->
<svg version="1.1" id="Layer_1" xmlns="http://www.w3.org/2000/svg" xmlns:xlink="http://www.w3.org/1999/xlink" x="0px" y="0px"
	 viewBox="0 0 1920 1080" style="enable-background:new 0 0 1920 1080;" xml:space="preserve">
<style type="text/css">
	.st0{clip-path:url(#SVGID_00000055689742085340716440000007601079377406165674_);}
	.st1{fill:url(#SVGID_00000114763050020997090710000014075484378860705195_);}
	.st2{opacity:0.5;fill:url(#SVGID_00000171709712592519410160000007231714687110813339_);enable-background:new    ;}
	.st3{fill:url(#SVGID_00000160889067676211513720000014462041497045654694_);}
	.st4{fill:#F5F5F5;}
	.st5{font-family:'OpenSans-Bold';}
	.st6{font-size:24.93px;}
	.st7{clip-path:url(#SVGID_00000018208110402077744530000016888202765643277230_);}
	.st8{fill:#3E167C;}
	.st9{fill:#3D1579;}
	.st10{fill:#3B1576;}
	.st11{fill:#3A1473;}
	.st12{fill:#381370;}
	.st13{fill:#37136C;}
	.st14{fill:#351269;}
	.st15{fill:#331266;}
	.st16{fill:#321163;}
	.st17{fill:#301160;}
	.st18{fill:#2A0E53;}
	.st19{fill:#431785;}
	.st20{clip-path:url(#SVGID_00000108274789253289068320000013726360759881116569_);}
	.st21{fill:#290E51;}
	.st22{fill:#2A0F54;}
	.st23{fill:#2C0F57;}
	.st24{fill:#2D105A;}
	.st25{fill:#2F105D;}
	.st26{fill:#3C1578;}
	.st27{fill:url(#SVGID_00000039115618482557684610000009543778444751659940_);}
	.st28{fill:#4E1B9B;}
	.st29{fill:url(#SVGID_00000029043673854876757780000018258550647771089318_);}
	.st30{fill:#FFFFFF;}
	.st31{fill:none;stroke:#F8F7FB;stroke-width:2.11;stroke-miterlimit:10;}
	.st32{opacity:0.58;fill:url(#SVGID_00000090268713372444616150000007488435497324597646_);enable-background:new    ;}
	.st33{opacity:0.38;fill:url(#SVGID_00000029754796024539081600000013347404321158001797_);enable-background:new    ;}
	.st34{fill:#F8F7FB;}
	.st35{fill:none;}
	.st36{fill:#FF3386;}
	.st37{opacity:0.47;fill:#EA4546;enable-background:new    ;}
	.st38{opacity:0.58;fill:url(#SVGID_00000120556490621837801860000007376104815491704743_);enable-background:new    ;}
	.st39{fill:#875FF3;}
	.st40{fill:#7027D6;}
	.st41{fill:#A58BF0;}
	.st42{fill:#C5B5F9;}
	.st43{fill:#7F38F0;}
	.st44{fill:#EDEAFF;}
	.st45{fill:#EAAF1C;}
	.st46{fill:#FFCF4D;}
	.st47{fill:#FFE590;}
	.st48{fill:#F6C01C;}
	.st49{fill:#089486;}
	.st50{fill:#11B7A3;}
	.st51{fill:#28D4BF;}
	.st52{fill:#C9FAF0;}
	.st53{fill:#58EAD3;}
	.st54{fill:#D62821;}
	.st55{fill:#EA4546;}
	.st56{fill:#FAA4A0;}
	.st57{fill:#FFC8C6;}
	.st58{fill:#F86F6B;}
	
		.st59{opacity:0.63;fill:none;stroke:#FFFFFF;stroke-width:2;stroke-linecap:round;stroke-linejoin:round;stroke-dasharray:5;enable-background:new    ;}
	.st60{fill:#39BAF9;}
	.st61{fill:#7FCFFA;}
	.st62{fill:url(#SVGID_00000114787851296185045280000017704106609336226699_);}
	.st63{fill:#ABE2F5;}
	.st64{opacity:0.17;enable-background:new    ;}
	.st65{fill:#FFC6B2;}
	.st66{fill:#C89F82;}
	.st67{fill:#1F398E;}
	.st68{fill:#BA1B1C;}
	.st69{fill:#703E03;}
	.st70{fill:#F2FBFC;}
	.st71{opacity:0.38;}
	.st72{fill:url(#SVGID_00000093893189278079223370000004703143956187077522_);}
	.st73{fill:url(#SVGID_00000113335021803641872800000016928388090563637163_);}
	.st74{fill:url(#SVGID_00000073721659638819152540000014407154110888058767_);}
	.st75{fill:url(#SVGID_00000072968370131667991360000006469276727902595745_);}
	.st76{fill:url(#SVGID_00000052075645514509628150000014890180053829670272_);}
	.st77{fill:url(#SVGID_00000150063186844283501830000017160711726048499133_);}
	.st78{fill:url(#SVGID_00000094595907802584908050000018268943203562758825_);}
	.st79{fill:url(#SVGID_00000112613412770570359040000002135770646507524272_);}
</style>
<g>
	<defs>
		<rect id="SVGID_1_" width="1920" height="1080"/>
	</defs>
	<clipPath id="SVGID_00000067222259984582765120000014587809385651030426_">
		<use xlink:href="#SVGID_1_"  style="overflow:visible;"/>
	</clipPath>
	<g style="clip-path:url(#SVGID_00000067222259984582765120000014587809385651030426_);">
		
			<linearGradient id="SVGID_00000145770239195681761000000017788502259790258305_" gradientUnits="userSpaceOnUse" x1="957.9613" y1="1234.04" x2="962.0412" y2="-154.89" gradientTransform="matrix(1 0 0 -1 0 1080)">
			<stop  offset="3.000000e-02" style="stop-color:#FFB677"/>
			<stop  offset="0.11" style="stop-color:#FDAD74"/>
			<stop  offset="0.24" style="stop-color:#F9956D"/>
			<stop  offset="0.4" style="stop-color:#F16E62"/>
			<stop  offset="0.59" style="stop-color:#E63952"/>
			<stop  offset="0.68" style="stop-color:#E11D4A"/>
		</linearGradient>
		<rect style="fill:url(#SVGID_00000145770239195681761000000017788502259790258305_);" width="1920" height="1080"/>
		
			<linearGradient id="SVGID_00000183931249936089876390000010378659891243554470_" gradientUnits="userSpaceOnUse" x1="881.0706" y1="996.9601" x2="1010.6306" y2="-69.9598" gradientTransform="matrix(1 0 0 -1 0 1080)">
			<stop  offset="0" style="stop-color:#4E1B9B"/>
			<stop  offset="0.13" style="stop-color:#591B95"/>
			<stop  offset="0.36" style="stop-color:#771C84"/>
			<stop  offset="0.67" style="stop-color:#A81C6A"/>
			<stop  offset="0.98" style="stop-color:#E11D4A"/>
		</linearGradient>
		<path style="opacity:0.5;fill:url(#SVGID_00000183931249936089876390000010378659891243554470_);enable-background:new    ;" d="
			M1783.3,915c20.7-45.5,53.8-80.8,82.5-119.6s54.3-85.7,54.2-137.4c-0.1-58,0-271.9,0-271.9c-26-77.8-86.6-69.3-107-70.8
			c-101-7.5-259.6,110.4-337.6,33.3c-59.9-59.2-95.2-146.7-149.8-212.9s-147.2-107.9-208.7-51.1c-31,28.6-45.9,74.9-68.4,113.2
			S985.7,269,949.5,251c-14.6-7.2-25.7-21.6-38.6-32.5c-65.5-55.1-160.7-6.7-209.6,69.1s-68.8,172.2-107.1,256.2
			c-9.5,20.8-20.6,41.5-37.2,54.4c-22.3,17.3-51.2,17.8-77,10.4c-63.1-18-112.5-77.5-147.3-142.9S274.2,327.4,240.8,261
			C184.3,148.4,99.3,56.4,0,0v1080h1784.5L1783.3,915z"/>
		
			<linearGradient id="SVGID_00000010994220237232893030000016298312848346041985_" gradientUnits="userSpaceOnUse" x1="575.4092" y1="-267.1589" x2="2078.7292" y2="766.371" gradientTransform="matrix(1 0 0 -1 0 1080)">
			<stop  offset="0" style="stop-color:#4E1B9B"/>
			<stop  offset="0.17" style="stop-color:#521B99"/>
			<stop  offset="0.33" style="stop-color:#5E1B92"/>
			<stop  offset="0.49" style="stop-color:#711B88"/>
			<stop  offset="0.65" style="stop-color:#8C1C79"/>
			<stop  offset="0.8" style="stop-color:#B01C65"/>
			<stop  offset="0.96" style="stop-color:#DA1D4E"/>
			<stop  offset="0.98" style="stop-color:#E11D4A"/>
		</linearGradient>
		<polygon style="fill:url(#SVGID_00000010994220237232893030000016298312848346041985_);" points="1928,1080 0,1080 1333,308.2 
			1928,647.4 		"/>
		<text transform="matrix(0.87 0.5 0 1 1388.1997 266.6699)" class="st4 st5 st6">8hr</text>
		<text transform="matrix(0.87 0.5 0 1 1512.5298 338.2402)" class="st4 st5 st6">11:27</text>
		<text transform="matrix(0.87 0.5 0 1 1620.4001 399.93)" class="st4 st5 st6">26 miles</text>
		<text transform="matrix(0.87 0.5 0 1 1759.02 480.7797)" class="st4 st5 st6">172 bpm</text>
		<g>
			<g>
				<g>
					<defs>
						<path id="SVGID_00000020360062672251615120000014430251353652177319_" d="M699.3,589.2l11.8,6.8c-6-3.5-14.4-3-23.6,2.3
							l-11.8-6.8C684.9,586.2,693.3,585.7,699.3,589.2z"/>
					</defs>
					<clipPath id="SVGID_00000098904361301911645640000000098516022244270214_">
						<use xlink:href="#SVGID_00000020360062672251615120000014430251353652177319_"  style="overflow:visible;"/>
					</clipPath>
					<g style="clip-path:url(#SVGID_00000098904361301911645640000000098516022244270214_);">
						<g>
							<path class="st8" d="M687.5,598.3l-11.8-6.8c1.5-0.9,3-1.6,4.6-2.3l11.8,6.8C690.6,596.7,689,597.5,687.5,598.3"/>
							<path class="st9" d="M692.2,596l-11.8-6.8c1.3-0.5,2.6-1,3.9-1.3l11.8,6.9C694.7,595,693.4,595.5,692.2,596"/>
							<path class="st10" d="M696.1,594.7l-11.8-6.9c1-0.3,1.9-0.5,2.9-0.6l11.8,6.9C698,594.2,697,594.4,696.1,594.7"/>
							<path class="st11" d="M699,594.1l-11.8-6.9c0.8-0.1,1.6-0.2,2.5-0.2l11.8,6.9C700.6,593.9,699.8,593.9,699,594.1"/>
							<path class="st12" d="M701.5,593.8l-11.8-6.8c0.8,0,1.5,0,2.2,0l11.8,6.9C702.9,593.8,702.2,593.8,701.5,593.8"/>
							<path class="st13" d="M703.6,593.8l-11.8-6.8c0.7,0,1.3,0.1,2,0.2l11.8,6.8C705,594,704.3,593.9,703.6,593.8"/>
							<path class="st14" d="M705.6,594.1l-11.8-6.8c0.6,0.1,1.2,0.2,1.9,0.4l11.8,6.8C706.9,594.3,706.3,594.2,705.6,594.1"/>
							<path class="st15" d="M707.5,594.5l-11.8-6.8c0.6,0.2,1.2,0.4,1.8,0.6l11.8,6.9C708.7,594.9,708.1,594.7,707.5,594.5"/>
							<path class="st16" d="M709.3,595.1l-11.8-6.9c0.6,0.2,1.1,0.5,1.7,0.8l11.8,6.8C710.4,595.6,709.8,595.4,709.3,595.1"/>
							<path class="st17" d="M710.9,595.9l-11.8-6.8l0.2,0.1l11.8,6.8L710.9,595.9"/>
						</g>
					</g>
				</g>
			</g>
			<polygon class="st18" points="486.3,798.9 474.5,805.3 474.4,742.4 486.1,749.2 			"/>
			<polygon class="st19" points="516.1,697.3 504.3,690.5 675.7,591.5 687.5,598.3 			"/>
			<g>
				<g>
					<defs>
						<path id="SVGID_00000044888357476074356370000002587743435318956946_" d="M486.1,749.2l-11.8-6.8c0-19.1,13.4-42.3,30-51.9
							l11.8,6.9C499.5,706.9,486.1,730.2,486.1,749.2z"/>
					</defs>
					<clipPath id="SVGID_00000165954885146345803880000006416780212829194654_">
						<use xlink:href="#SVGID_00000044888357476074356370000002587743435318956946_"  style="overflow:visible;"/>
					</clipPath>
					<g style="clip-path:url(#SVGID_00000165954885146345803880000006416780212829194654_);">
						<g>
							<path class="st21" d="M486.1,749.2l-11.8-6.8c0-2,0.1-3.9,0.4-5.9l11.8,6.9C486.3,745.3,486.1,747.3,486.1,749.2"/>
							<path class="st22" d="M486.5,743.4l-11.8-6.9c0.2-1.4,0.4-2.8,0.7-4.2l11.8,6.8C486.9,740.6,486.7,742,486.5,743.4"/>
							<path class="st23" d="M487.2,739.2l-11.8-6.8c0.2-1.2,0.5-2.3,0.8-3.5l11.8,6.8C487.8,736.9,487.5,738,487.2,739.2"/>
							<path class="st24" d="M488.1,735.7l-11.8-6.8c0.3-1,0.6-2,0.9-3.1l11.8,6.9C488.7,733.7,488.4,734.7,488.1,735.7"/>
							<path class="st25" d="M489,732.7l-11.8-6.9c0.3-1,0.6-1.9,1-2.8l11.8,6.9C489.6,730.8,489.3,731.7,489,732.7"/>
							<path class="st17" d="M490,729.8l-11.8-6.8c0.3-0.9,0.7-1.8,1.1-2.7l11.8,6.9C490.8,728,490.4,728.9,490,729.8"/>
							<path class="st16" d="M491.1,727.1l-11.8-6.9c0.4-0.9,0.8-1.7,1.2-2.6l11.8,6.9C491.9,725.4,491.5,726.2,491.1,727.1"/>
							<path class="st15" d="M492.3,724.5l-11.8-6.9c0.4-0.9,0.8-1.7,1.3-2.5l11.8,6.8C493.2,722.8,492.7,723.7,492.3,724.5"/>
							<path class="st14" d="M493.6,722l-11.8-6.8c0.5-0.9,0.9-1.7,1.4-2.5l11.8,6.9C494.6,720.3,494.1,721.2,493.6,722"/>
							<path class="st13" d="M495,719.4l-11.8-6.9c0.5-0.9,1-1.7,1.6-2.5l11.8,6.8C496.1,717.7,495.6,718.6,495,719.4"/>
							<path class="st12" d="M496.6,716.9l-11.8-6.9c0.6-0.9,1.1-1.8,1.7-2.6l11.8,6.8C497.7,715.1,497.2,716,496.6,716.9"/>
							<path class="st11" d="M498.3,714.3l-11.8-6.8c0.6-0.9,1.3-1.8,2-2.7l11.8,6.9C499.7,712.5,499,713.4,498.3,714.3"/>
							<path class="st10" d="M500.3,711.6l-11.8-6.9c0.8-1,1.6-2,2.4-3l11.8,6.8C501.9,709.6,501.1,710.6,500.3,711.6"/>
							<path class="st9" d="M502.8,708.6l-11.8-6.9c1.1-1.2,2.2-2.4,3.3-3.5l11.8,6.8C505,706.2,503.9,707.4,502.8,708.6"/>
							<path class="st8" d="M506.1,705.1l-11.8-6.8c3-3,6.4-5.6,10-7.8l11.8,6.9C512.5,699.5,509.1,702.1,506.1,705.1"/>
						</g>
					</g>
				</g>
			</g>
			<path class="st26" d="M687.5,598.3c18.3-10.6,33.2-2.1,33.2,19l0.1,46.1L486.3,798.9l-0.1-49.6c-0.1-19.1,13.4-42.3,30-51.9
				L687.5,598.3z"/>
		</g>
		<g>
			
				<linearGradient id="SVGID_00000125580104103141450740000011726568746250364840_" gradientUnits="userSpaceOnUse" x1="-102.113" y1="229.8226" x2="1116.8369" y2="1666.9526" gradientTransform="matrix(1 0 0 -1 0 1080)">
				<stop  offset="0" style="stop-color:#991C72"/>
				<stop  offset="0.1" style="stop-color:#4E1B9B"/>
				<stop  offset="0.12" style="stop-color:#521F9C"/>
				<stop  offset="0.14" style="stop-color:#602C9F"/>
				<stop  offset="0.17" style="stop-color:#7642A5"/>
				<stop  offset="0.19" style="stop-color:#9560AC"/>
				<stop  offset="0.21" style="stop-color:#BC87B6"/>
				<stop  offset="0.24" style="stop-color:#ECB6C1"/>
				<stop  offset="0.25" style="stop-color:#FFC8C6"/>
				<stop  offset="0.26" style="stop-color:#F6A3AC"/>
				<stop  offset="0.28" style="stop-color:#EC7A90"/>
				<stop  offset="0.3" style="stop-color:#E45879"/>
				<stop  offset="0.32" style="stop-color:#DE3E67"/>
				<stop  offset="0.34" style="stop-color:#DA2C5A"/>
				<stop  offset="0.35" style="stop-color:#D72153"/>
				<stop  offset="0.38" style="stop-color:#D61D50"/>
				<stop  offset="0.71" style="stop-color:#5C1B93"/>
				<stop  offset="0.74" style="stop-color:#501B9A"/>
				<stop  offset="0.76" style="stop-color:#541B98"/>
				<stop  offset="0.78" style="stop-color:#611B91"/>
				<stop  offset="0.8" style="stop-color:#761C85"/>
				<stop  offset="0.83" style="stop-color:#931C75"/>
				<stop  offset="0.85" style="stop-color:#B81C60"/>
				<stop  offset="0.87" style="stop-color:#E11D4A"/>
			</linearGradient>
			<path style="fill:url(#SVGID_00000125580104103141450740000011726568746250364840_);" d="M1039.7-251.9
				c-8.5-4.9-20.3-4.3-33.3,3.3L100.6,274.3c-25.9,14.9-46.8,51.1-46.7,80.9l1.6,578c0,14.8,5.2,25.2,13.7,30l16.4,9.5
				c-8.4-4.9-13.6-15.3-13.7-30l-1.6-578c-0.1-29.7,20.8-65.9,46.7-80.9l905.7-522.9c13-7.5,24.8-8.2,33.3-3.3L1039.7-251.9z"/>
			<path class="st28" d="M1022.7-239.1c25.9-14.9,46.9-2.9,47,26.8l1.6,578c0.1,29.7-20.8,65.9-46.7,80.9L118.9,969.4
				c-25.9,14.9-46.9,2.9-47-26.8l-1.6-578c-0.1-29.7,20.8-65.9,46.7-80.9L1022.7-239.1z"/>
		</g>
		
			<linearGradient id="SVGID_00000143581821443050008620000008271916897478662558_" gradientUnits="userSpaceOnUse" x1="-828.48" y1="189.2276" x2="623.51" y2="189.2276" gradientTransform="matrix(0.87 -0.5 0.5 -1.44 563.54 586.1501)">
			<stop  offset="0" style="stop-color:#991C72"/>
			<stop  offset="0.1" style="stop-color:#4E1B9B"/>
			<stop  offset="0.12" style="stop-color:#521F9C"/>
			<stop  offset="0.14" style="stop-color:#602C9F"/>
			<stop  offset="0.17" style="stop-color:#7642A5"/>
			<stop  offset="0.19" style="stop-color:#9560AC"/>
			<stop  offset="0.21" style="stop-color:#BC87B6"/>
			<stop  offset="0.24" style="stop-color:#ECB6C1"/>
			<stop  offset="0.25" style="stop-color:#FFC8C6"/>
			<stop  offset="0.26" style="stop-color:#F6A3AC"/>
			<stop  offset="0.28" style="stop-color:#EC7A90"/>
			<stop  offset="0.3" style="stop-color:#E45879"/>
			<stop  offset="0.32" style="stop-color:#DE3E67"/>
			<stop  offset="0.34" style="stop-color:#DA2C5A"/>
			<stop  offset="0.35" style="stop-color:#D72153"/>
			<stop  offset="0.38" style="stop-color:#D61D50"/>
			<stop  offset="0.71" style="stop-color:#5C1B93"/>
			<stop  offset="0.74" style="stop-color:#501B9A"/>
			<stop  offset="0.76" style="stop-color:#541B98"/>
			<stop  offset="0.78" style="stop-color:#611B91"/>
			<stop  offset="0.8" style="stop-color:#761C85"/>
			<stop  offset="0.83" style="stop-color:#931C75"/>
			<stop  offset="0.85" style="stop-color:#B81C60"/>
			<stop  offset="0.87" style="stop-color:#E11D4A"/>
		</linearGradient>
		<path style="fill:url(#SVGID_00000143581821443050008620000008271916897478662558_);" d="M70.9,932.7V372.2
			c0-35.7,21.7-77.2,48.5-92.7l902.7-521.2c26.8-15.5,48.5,0.9,48.5,36.7v560.4c0,35.7-21.7,77.2-48.5,92.7L119.4,969.4
			C92.7,984.8,70.9,968.4,70.9,932.7z"/>
		<path class="st30" d="M1064.7-202v561.5c0,29.3-16.5,62.9-37.8,78.6c-1.7,1.2-3.4,2.4-5.2,3.4L119.9,962.2c-1.7,1-3.5,1.9-5.3,2.6
			C93.4,973.6,77,959,77,929.7V368.2c0-31.6,19.2-68.3,42.9-82l901.8-520.7C1045.4-248.2,1064.7-233.6,1064.7-202z"/>
		<polyline class="st31" points="537.4,659.4 957.4,417.4 957.4,207.8 		"/>
		
			<linearGradient id="SVGID_00000078757852821311173090000014067774944853099705_" gradientUnits="userSpaceOnUse" x1="611.3608" y1="334.3535" x2="507.6409" y2="654.5235" gradientTransform="matrix(1 0 0 -1 0 1080)">
			<stop  offset="0" style="stop-color:#F57319"/>
			<stop  offset="0.17" style="stop-color:#F06B1C"/>
			<stop  offset="0.43" style="stop-color:#E45425"/>
			<stop  offset="0.76" style="stop-color:#D02F33"/>
			<stop  offset="0.99" style="stop-color:#BF113F"/>
		</linearGradient>
		<path style="opacity:0.58;fill:url(#SVGID_00000078757852821311173090000014067774944853099705_);enable-background:new    ;" d="
			M1064.7,301.2v58.3c0,29.3-16.5,62.9-37.8,78.6L114.6,964.8C93.4,973.6,77,959,77,929.7v-101c30.7-32,58.7-66.3,83.9-102.7
			c18.9-27.2,36.6-56,57.8-80.2s47.4-43.7,68.2-42.6c23.3,1.3,37.2,27.8,63.6,16c32-14.4,51-68.5,77.5-104.8
			c32.4-44.4,77.9-61.5,111.4-56.9s58.6,26,87.3,40.4c61.2,30.7,140.2,29,223.4-4.8c16.8-6.9,34.4-15.4,50.6-30.7
			c13.2-12.4,24.6-28.4,35.9-44c33.1-45.5,70.8-92.4,110.9-111C1053,304.9,1058.8,302.8,1064.7,301.2z"/>
		
			<linearGradient id="SVGID_00000009568490786929752850000013917627606406438799_" gradientUnits="userSpaceOnUse" x1="158.2628" y1="2452.0479" x2="164.2928" y2="1725.0479" gradientTransform="matrix(0.87 -0.5 0.5 -1.44 -519.78 3505.1599)">
			<stop  offset="0" style="stop-color:#FFB677"/>
			<stop  offset="0.12" style="stop-color:#FDAE75"/>
			<stop  offset="0.32" style="stop-color:#F9976E"/>
			<stop  offset="0.55" style="stop-color:#F27263"/>
			<stop  offset="0.82" style="stop-color:#E83F54"/>
			<stop  offset="0.98" style="stop-color:#E11D4A"/>
		</linearGradient>
		<path style="opacity:0.38;fill:url(#SVGID_00000009568490786929752850000013917627606406438799_);enable-background:new    ;" d="
			M994.7,416.2L372.2,775.7c-16.4,9.4-29.6-0.6-29.6-22.4V365.6c0-21.8,13.3-47.2,29.6-56.6L994.7-50.4c16.4-9.5,29.6,0.6,29.6,22.4
			v387.6C1024.3,381.5,1011.1,406.8,994.7,416.2z"/>
		<polygon class="st34" points="423.9,338.8 389.8,358.5 389.8,352.4 423.9,332.7 		"/>
		<polygon class="st34" points="423.9,359.5 389.8,379.2 389.8,373.2 423.9,353.5 		"/>
		<polygon class="st34" points="423.9,359.5 389.8,379.2 389.8,373.2 423.9,353.5 		"/>
		<polygon class="st34" points="499,357.4 389.8,420.5 389.8,414.4 499,351.4 		"/>
		<polyline class="st34" points="389.8,455.9 452.6,419.7 452.6,425.7 389.8,462 		"/>
		<polyline class="st34" points="389.8,435.2 499,372.1 499,378.2 389.8,441.2 		"/>
		<polygon class="st34" points="499,440.5 389.8,503.5 389.8,497.4 499,434.4 		"/>
		<polyline class="st34" points="389.8,539 452.6,502.7 452.6,508.8 389.8,545 		"/>
		<polyline class="st34" points="389.8,518.2 963.9,186.7 963.9,192.8 389.8,524.2 		"/>
		<polygon class="st34" points="499,521.9 389.8,585 389.8,578.9 499,515.9 		"/>
		<polyline class="st34" points="389.8,620.4 452.6,584.2 452.6,590.2 389.8,626.5 		"/>
		<polyline class="st34" points="389.8,599.7 499,536.6 499,542.7 389.8,605.7 		"/>
		<polygon class="st34" points="499,603.4 389.8,666.4 389.8,660.4 499,597.3 		"/>
		<polyline class="st34" points="389.8,701.9 452.6,665.6 452.6,671.7 389.8,707.9 		"/>
		<polyline class="st34" points="389.8,681.1 499,618.1 499,624.2 389.8,687.2 		"/>
		<polygon class="st34" points="511.4,288.3 441.1,328.9 441.1,322.8 511.4,282.2 		"/>
		<polygon class="st34" points="511.4,309 441.1,349.6 441.1,343.6 511.4,303 		"/>
		<polygon class="st34" points="601.9,236 531.6,276.6 531.6,270.5 601.9,230 		"/>
		<polygon class="st34" points="601.9,256.8 531.6,297.4 531.6,291.3 601.9,250.7 		"/>
		<polygon class="st34" points="692.4,183.8 622.1,224.4 622.1,218.3 692.4,177.7 		"/>
		<polygon class="st34" points="692.4,204.5 622.1,245.1 622.1,239.1 692.4,198.5 		"/>
		<polygon class="st34" points="782.9,131.5 712.6,172.1 712.6,166 782.9,125.4 		"/>
		<polygon class="st34" points="782.9,152.3 712.6,192.9 712.6,186.8 782.9,146.2 		"/>
		<polygon class="st34" points="873.4,79.2 803.1,119.8 803.1,113.8 873.4,73.2 		"/>
		<polygon class="st34" points="873.4,100 803.1,140.6 803.1,134.5 873.4,93.9 		"/>
		<polygon class="st34" points="963.9,27 893.6,67.6 893.6,61.5 963.9,20.9 		"/>
		<polygon class="st34" points="963.9,47.8 893.6,88.3 893.6,82.3 963.9,41.7 		"/>
		<polygon class="st34" points="601.9,277.5 531.6,318.1 531.6,312.1 601.9,271.5 		"/>
		<polygon class="st34" points="692.4,225.3 622.1,265.9 622.1,259.8 692.4,219.2 		"/>
		<polygon class="st34" points="782.9,173 712.6,213.6 712.6,207.6 782.9,167 		"/>
		<polygon class="st34" points="873.4,120.8 803.1,161.4 803.1,155.3 873.4,114.7 		"/>
		<polygon class="st34" points="963.9,68.5 893.6,109.1 893.6,103.1 963.9,62.5 		"/>
		<line class="st35" x1="389.8" y1="352.4" x2="423.9" y2="332.7"/>
		<polygon class="st34" points="671.5,331 609,367.1 609,340.5 671.5,304.4 		"/>
		<polygon class="st34" points="814.2,212.3 751.7,248.4 751.7,221.8 814.2,185.7 		"/>
		<polygon class="st34" points="949,184.1 886.5,220.2 886.5,193.6 949,157.5 		"/>
		<line class="st31" x1="640.2" y1="335.7" x2="640.2" y2="373.6"/>
		<line class="st31" x1="782.9" y1="222.9" x2="782.9" y2="294.2"/>
		<line class="st31" x1="917.7" y1="195.7" x2="917.7" y2="216.4"/>
		<path class="st30" d="M546.6,620.5l-1.3-2.4c0.3-0.3,54.8,0.4,66.5-57.3c11.7-58.2,18.3-80.9,31.9-92.7c14.4-12.4,29-3.8,37.1,22
			c5.6,17.7,14.2,27.2,22.4,24.6c3.9-1.2,7.6-5,11.1-11.4c3.7-6.7,7.5-14.5,11.2-22c9.3-18.9,18-36.7,26.5-41.6s16.6-4.4,24.7-4
			c9.7,0.5,18.8,1,27.3-7.5c7.1-7.1,13.2-20,18.7-39.3c6-21.3,9.6-40,12.7-56.6c5.6-29.6,9.7-51.1,23.7-62.4
			c16.9-13.7,24.1,18.4,28.9,39.6l0.1,0.6c3.5,15.7,10.9,22.3,20.8,18.7c7.9-2.9,16.4-12.2,21.3-23.4l2.5,0.5
			c-5.5,12.6-15.3,23.3-24.3,26.6c-6.5,2.3-18.1,2.9-23.2-20l-0.1-0.6c-4.2-18.9-11.2-50.5-25.4-39c-12.2,9.9-16,30.3-21.4,58.5
			c-3.2,16.7-6.7,35.6-12.8,57.1c-5.8,20.5-12.4,34.4-20.4,42.3c-9.8,9.8-19.9,9.2-29.8,8.7c-7.7-0.4-15.6-0.8-23.2,3.6
			c-7.1,4.1-15.8,21.8-24.2,39c-3.7,7.6-7.6,15.5-11.4,22.4c-4.2,7.6-9,12.5-14,14c-9.4,2.9-18.6-6.7-24.6-25.7
			c-7.5-23.9-21-32.6-33.5-21.8c-11.2,9.7-17.6,28.8-29.7,88.9C602.6,619.6,547.8,619.1,546.6,620.5z"/>
		<path class="st36" d="M937,302.5c-0.2,3.9-2.3,7.5-5.6,9.7c-3.1,1.8-5.6,0.3-5.6-3.2c0.2-3.9,2.3-7.5,5.6-9.7
			C934.5,297.5,937,298.9,937,302.5z"/>
		<path class="st36" d="M901,326.1c-0.2,3.9-2.3,7.5-5.6,9.7c-3.1,1.8-5.6,0.3-5.6-3.2c0.2-3.9,2.3-7.5,5.6-9.7
			C898.5,321.1,901,322.6,901,326.1z"/>
		<path class="st36" d="M865,268.2c-0.2,3.9-2.3,7.5-5.6,9.7c-3.1,1.8-5.6,0.3-5.6-3.2c0.2-3.9,2.3-7.5,5.6-9.7
			C862.4,263.1,865,264.6,865,268.2z"/>
		<path class="st36" d="M828.9,388.7c-0.2,3.9-2.3,7.5-5.6,9.7c-3.1,1.8-5.6,0.3-5.6-3.2c0.2-3.9,2.3-7.5,5.6-9.7
			C826.4,383.7,828.9,385.1,828.9,388.7z"/>
		<path class="st36" d="M792.9,435.3c-0.2,3.9-2.3,7.5-5.6,9.7c-3.1,1.8-5.6,0.4-5.6-3.2c0.2-3.9,2.3-7.5,5.6-9.7
			C790.4,430.3,792.9,431.7,792.9,435.3z"/>
		<path class="st36" d="M757.3,437.8c-0.2,3.9-2.3,7.5-5.6,9.7c-3.1,1.8-5.6,0.3-5.6-3.2c0.2-3.9,2.3-7.5,5.6-9.7
			C754.8,432.8,757.3,434.3,757.3,437.8z"/>
		<path class="st36" d="M720.9,499.5c-0.2,3.9-2.3,7.5-5.6,9.7c-3.1,1.8-5.6,0.3-5.6-3.2c0.2-3.9,2.3-7.5,5.6-9.7
			C718.4,494.5,720.9,496,720.9,499.5z"/>
		<path class="st36" d="M684.9,488.8c-0.2,3.9-2.3,7.5-5.6,9.7c-3.1,1.8-5.6,0.3-5.6-3.2c0.2-3.9,2.3-7.5,5.6-9.7
			C682.4,483.8,684.9,485.2,684.9,488.8z"/>
		<path class="st36" d="M648.9,468.8c-0.2,3.9-2.3,7.5-5.6,9.7c-3.1,1.8-5.6,0.4-5.6-3.2c0.2-3.9,2.3-7.5,5.6-9.7
			C646.4,463.8,648.9,465.2,648.9,468.8z"/>
		<path class="st36" d="M613.6,578.7c-0.2,3.9-2.3,7.5-5.6,9.7c-3.1,1.8-5.6,0.3-5.6-3.2c0.2-3.9,2.3-7.5,5.6-9.7
			C611.1,573.7,613.6,575.1,613.6,578.7z"/>
		<path class="st36" d="M549.5,614.9c-0.2,3.9-2.3,7.5-5.6,9.7c-3.1,1.8-5.6,0.3-5.6-3.2c0.2-3.9,2.3-7.5,5.6-9.7
			C547,609.9,549.5,611.3,549.5,614.9z"/>
		<path class="st37" d="M319.1,384.7l-209.6,121c-0.8,0.5-1.9,0.2-2.4-0.6c-0.2-0.3-0.2-0.6-0.2-0.9v-27.5c0-0.6,0.3-1.2,0.9-1.5
			l209.6-121c0.9-0.5,1.9-0.2,2.4,0.7c0.2,0.3,0.2,0.6,0.2,0.9v27.5C319.9,383.8,319.6,384.4,319.1,384.7z"/>
		<path class="st37" d="M319.1,426.8l-209.6,121c-0.8,0.5-1.9,0.2-2.4-0.6c-0.2-0.3-0.2-0.6-0.2-0.9v-27.5c0-0.6,0.3-1.2,0.9-1.5
			l209.6-121c0.8-0.5,1.9-0.3,2.5,0.6c0.2,0.3,0.3,0.6,0.3,1v27.5C320,425.9,319.6,426.5,319.1,426.8z"/>
		<path class="st37" d="M319.1,468.9l-209.6,121c-0.8,0.5-1.9,0.2-2.4-0.6c-0.2-0.3-0.2-0.6-0.2-0.9v-27.5c0-0.6,0.3-1.2,0.9-1.5
			l209.6-121c0.9-0.5,1.9-0.2,2.4,0.7c0.2,0.3,0.2,0.6,0.2,0.9v27.5C320,468,319.6,468.6,319.1,468.9z"/>
		
			<linearGradient id="SVGID_00000158736563251826711650000001216903200945593518_" gradientUnits="userSpaceOnUse" x1="570.83" y1="489.08" x2="570.83" y2="1286.4099" gradientTransform="matrix(1 0 0 -1 0 1080)">
			<stop  offset="0" style="stop-color:#F57319"/>
			<stop  offset="0.17" style="stop-color:#F06B1C"/>
			<stop  offset="0.43" style="stop-color:#E45425"/>
			<stop  offset="0.76" style="stop-color:#D02F33"/>
			<stop  offset="0.99" style="stop-color:#BF113F"/>
		</linearGradient>
		<path style="opacity:0.58;fill:url(#SVGID_00000158736563251826711650000001216903200945593518_);enable-background:new    ;" d="
			M1064.7-202v23.4L77,391.6v-23.4c0-31.6,19.2-68.3,42.9-82l901.8-520.7C1045.4-248.2,1064.7-233.6,1064.7-202z"/>
		<g>
			<path class="st39" d="M1438.1,217.9l-10.6,6.1c3.4-1.9,5.4-6.1,5.5-12l10.6-6.1C1443.6,211.8,1441.5,215.9,1438.1,217.9z"/>
			<path class="st40" d="M1328.6,52.9l10.6-6.1c3.4-2,8.1-1.7,13.3,1.3l-10.6,6.2C1336.7,51.2,1332,51,1328.6,52.9z"/>
			<polygon class="st41" points="1433.3,128.5 1443.8,122.4 1443.6,205.9 1433,212 			"/>
			<polygon class="st40" points="1341.9,54.2 1352.5,48.1 1425.2,90 1414.6,96.2 			"/>
			<path class="st42" d="M1414.6,96.2l10.6-6.2c10.3,6,18.7,20.5,18.7,32.4l-10.6,6.1C1433.3,116.7,1424.9,102.2,1414.6,96.2z"/>
			<path class="st43" d="M1414.6,96.2c10.3,6,18.7,20.5,18.7,32.4L1433,212c0,11.9-8.4,16.7-18.8,10.7l-72.6-41.9
				c-10.3-6-18.7-20.5-18.7-32.4l0.2-83.5c0-11.9,8.4-16.7,18.8-10.7L1414.6,96.2z"/>
		</g>
		<path class="st30" d="M1408.6,159.6c0,22.1-15.5,31.1-34.7,20s-34.7-37.9-34.7-60s15.5-31.1,34.7-20S1408.6,137.5,1408.6,159.6z"
			/>
		<path class="st44" d="M1402.8,156.3c0,18.4-12.9,25.9-28.9,16.7s-28.9-31.6-28.9-50.1s13-25.9,28.9-16.7
			S1402.8,137.9,1402.8,156.3z"/>
		<polygon class="st28" points="1395.4,153.7 1373,140.8 1373,113.2 1374.9,114.3 1374.9,139.7 1395.4,151.5 		"/>
		<g>
			<path class="st45" d="M1582.1,299.9l-10.6,6.1c3.4-2,5.4-6.1,5.5-12l10.6-6.1C1587.5,293.8,1585.4,297.9,1582.1,299.9z"/>
			<path class="st45" d="M1472.6,134.9l10.6-6.1c3.4-2,8.1-1.7,13.3,1.3l-10.6,6.1C1480.7,133.2,1476,133,1472.6,134.9z"/>
			<polygon class="st46" points="1577.2,210.5 1587.8,204.4 1587.5,287.9 1577,294 			"/>
			<polygon class="st45" points="1485.9,136.2 1496.4,130.1 1569.1,172 1558.5,178.2 			"/>
			<path class="st47" d="M1558.5,178.2l10.6-6.2c10.3,6,18.7,20.5,18.7,32.4l-10.6,6.1C1577.2,198.6,1568.9,184.2,1558.5,178.2z"/>
			<path class="st48" d="M1558.5,178.2c10.3,6,18.7,20.5,18.7,32.4L1577,294c0,11.9-8.4,16.7-18.8,10.7l-72.7-42
				c-10.3-6-18.7-20.4-18.7-32.3l0.2-83.5c0-11.9,8.4-16.7,18.8-10.7L1558.5,178.2z"/>
		</g>
		<path class="st30" d="M1511.8,240.2c2.8-8.3,2.9-17.3,0.3-25.6c-4.3-14.1-6.8-26.7,3.4-22.1s24.6,22.6,21.5,39.4
			s-10.1,34.5-19.3,29.4S1508.8,246.2,1511.8,240.2z"/>
		<path class="st30" d="M1515.6,192.5c-2.3-1.1-3.9-1.2-5.1-0.6c9.7,6.6,20.7,22.4,18,37.4c-2.4,13.4-7.3,27.2-13.9,29.8
			c1,0.9,2,1.6,3.1,2.2c9.2,5.1,16.2-12.5,19.3-29.4S1525.7,197.2,1515.6,192.5z"/>
		<path class="st30" d="M1515.8,183.5c0.4,4.2-2.1,6.3-5.5,4.8s-6.5-6.2-6.9-10.3s2.1-6.3,5.5-4.8S1515.4,179.3,1515.8,183.5z"/>
		<path class="st30" d="M1525.4,189.8c0.2,2.7-1.3,4.1-3.5,3.1c-2.5-1.4-4.1-3.8-4.4-6.6c-0.2-2.7,1.3-4.1,3.5-3.1
			C1523.5,184.6,1525.1,187,1525.4,189.8z"/>
		<path class="st30" d="M1533.2,198.1c0.2,2.4-1.2,3.7-3.2,2.8c-2.2-1.3-3.7-3.5-4-6.1c-0.2-2.4,1.2-3.7,3.2-2.8
			C1531.4,193.3,1532.9,195.5,1533.2,198.1z"/>
		<path class="st30" d="M1538.8,207.2c0.2,2.1-1.1,3.2-2.8,2.5c-2-1.1-3.3-3.1-3.5-5.3c-0.2-2.1,1.1-3.2,2.8-2.5
			C1537.2,203,1538.5,205,1538.8,207.2z"/>
		<path class="st30" d="M1543.4,217.1c0.2,2.1-1.1,3.2-2.8,2.5c-2-1.1-3.3-3.1-3.5-5.3c-0.2-2.1,1.1-3.2,2.8-2.4
			C1541.9,212.8,1543.2,214.8,1543.4,217.1z"/>
		<g>
			<path class="st49" d="M1723.4,379.4l-10.6,6.1c3.4-2,5.4-6.1,5.5-12l10.6-6.1C1728.9,373.3,1726.8,377.5,1723.4,379.4z"/>
			<path class="st50" d="M1613.9,214.5l10.6-6.1c3.4-2,8.1-1.7,13.3,1.3l-10.6,6.1C1622,212.8,1617.3,212.5,1613.9,214.5z"/>
			<polygon class="st51" points="1718.5,290.1 1729.1,283.9 1728.9,367.4 1718.3,373.5 			"/>
			<polygon class="st50" points="1627.2,215.8 1637.8,209.6 1710.4,251.6 1699.9,257.7 			"/>
			<path class="st52" d="M1699.9,257.7l10.6-6.1c10.3,6,18.7,20.5,18.7,32.3l-10.6,6.1C1718.6,278.2,1710.2,263.7,1699.9,257.7z"/>
			<path class="st53" d="M1699.9,257.7c10.3,6,18.7,20.5,18.7,32.4l-0.2,83.5c0,11.9-8.4,16.7-18.8,10.7l-72.7-41.9
				c-10.3-6-18.7-20.5-18.7-32.4l0.2-83.5c0-11.9,8.4-16.7,18.8-10.7L1699.9,257.7z"/>
		</g>
		<path class="st54" d="M1682.8,301.7c0,12.4-19.4,36.6-19.4,36.6s-19.4-46.6-19.4-59s8.7-17.4,19.4-11.2S1682.8,289.3,1682.8,301.7
			z"/>
		<path class="st30" d="M1674.6,297.5c0,7.1-5,10-11.2,6.5s-11.2-12.2-11.2-19.4s5-10,11.2-6.5S1674.6,290.4,1674.6,297.5z"/>
		<g>
			<path class="st55" d="M1865.9,464.1l-10.6,6.1c3.4-2,5.4-6.1,5.5-12l10.6-6.1C1871.3,458,1869.2,462.2,1865.9,464.1z"/>
			<path class="st54" d="M1756.4,299.2l10.6-6.1c3.4-2,8.1-1.7,13.3,1.3l-10.6,6.1C1764.5,297.5,1759.8,297.2,1756.4,299.2z"/>
			<polygon class="st56" points="1861,374.8 1871.6,368.6 1871.3,452.1 1860.8,458.2 			"/>
			<polygon class="st54" points="1769.7,300.5 1780.3,294.3 1852.9,336.3 1842.3,342.4 			"/>
			<path class="st57" d="M1842.3,342.4l10.6-6.1c10.3,6,18.7,20.5,18.7,32.4l-10.6,6.1C1861.1,362.9,1852.7,348.4,1842.3,342.4z"/>
			<path class="st58" d="M1842.3,342.4c10.3,6,18.7,20.5,18.7,32.4l-0.2,83.5c0,11.9-8.5,16.7-18.8,10.7l-72.6-42
				c-10.3-6-18.7-20.5-18.7-32.4l0.2-83.5c0-11.9,8.4-16.7,18.8-10.7L1842.3,342.4z"/>
		</g>
		<path class="st30" d="M1788.5,343.6L1788.5,343.6c8.4,4.9,15.4,15.6,17.3,25.7c1.8-7.9,8.9-10.5,17.3-5.7l0,0
			c13.7,7.9,22.2,29.8,15.4,39.5l-32.2,23.1l-0.5,0.3l-0.5-0.9l-32.2-60.3C1766.3,347.8,1774.8,335.7,1788.5,343.6z"/>
		<polyline class="st59" points="1322.9,184.4 1325.1,248.4 1419.8,303.1 		"/>
		<ellipse transform="matrix(0.8629 -0.5054 0.5054 0.8629 87.4349 694.1603)" class="st30" cx="1322.9" cy="186" rx="5.2" ry="9"/>
		<polyline class="st59" points="1465.2,264.4 1467.4,328.5 1562.1,383.1 		"/>
		
			<ellipse transform="matrix(0.8629 -0.5054 0.5054 0.8629 66.5226 777.0762)" class="st30" cx="1465.3" cy="265.9" rx="5.2" ry="9"/>
		<polyline class="st59" points="1607.6,344.4 1609.8,408.5 1704.4,463.1 		"/>
		<ellipse transform="matrix(0.8629 -0.5054 0.5054 0.8629 45.5963 859.9883)" class="st30" cx="1607.6" cy="346" rx="5.2" ry="9"/>
		<polyline class="st59" points="1749.9,424.4 1752.1,488.5 1846.8,543.1 		"/>
		<ellipse transform="matrix(0.8629 -0.5054 0.5054 0.8629 24.6826 942.899)" class="st30" cx="1750" cy="426" rx="5.2" ry="9"/>
		<path class="st60" d="M1612.4,703.3l-7.4,6c-1.4-1.1-2.8-2.1-4.3-3l-272.3-157.2c-15.6-9-40.8-9-56.3,0L695.8,881.8
			c-1.9,1.1-3.7,2.4-5.4,3.9l-6.3-6.7v18.9l0,0c-0.1,6,3.8,11.9,11.7,16.5l272.3,157.2c15.5,9,40.8,9,56.3,0l576.3-332.7
			c7.8-4.5,11.7-10.4,11.7-16.3l0,0L1612.4,703.3z"/>
		<path class="st61" d="M1024.5,1052.3c-15.6,9-40.8,9-56.3,0L695.8,895.1c-15.6-9-15.6-23.5,0-32.5l576.3-332.7
			c15.6-9,40.8-9,56.3,0L1600.7,687c15.5,9,15.6,23.5,0,32.5L1024.5,1052.3z"/>
		
			<linearGradient id="SVGID_00000055676311810217324380000012418844935364068482_" gradientUnits="userSpaceOnUse" x1="734.77" y1="295" x2="1575.4" y2="295" gradientTransform="matrix(1 0 0 -1 0 1080)">
			<stop  offset="0" style="stop-color:#BBD8F9"/>
			<stop  offset="0.58" style="stop-color:#7FCFFA"/>
			<stop  offset="1" style="stop-color:#B9D8F9"/>
		</linearGradient>
		<polygon style="fill:url(#SVGID_00000055676311810217324380000012418844935364068482_);" points="1034.6,1027.7 734.8,854.6 
			1275.6,542.3 1575.4,715.4 		"/>
		<path class="st63" d="M1393.1,741l-69.3,41.1l-39.1-30.2l78.8-19.8l5.9-96.5l-52.6-25.5l37.2-22.6l-4.2-2.4l-41.9,25.4l57.1,27.7
			l-5.5,90.5l-79,19.8l-20.4-15.7l-11.5-65.5l-77.8-14.7l31.5-68.6l-6.4,3.7l-29.4,64.1l-61.4-11.6l-5.7,3.3l65.3,12.3l-20.9,45.4
			l-7.4,3.8l-74.6-22l-38.2,22.2l20.2,16.8l-18.9,11.1L974,715.8l-4.9,2.8l56.3,19.2l25.8-15.2l-20.2-16.7l31.3-18.2l68.5,20.2
			l-106.5,54.9l-14.9-6.4l-0.5-0.2l-118.6,8L882,769l126.2-8.5l13.4,5.8l-22.3,54.9l-129.5,3.1l-51.1,78.9l3.7,2.1l49.7-76.8
			l130-3.1l23.3-57.4l168.8,72.9l-33.3,19.7l14.6,49.5l-77.2,41.1l-44.4-15.7l-96.2,47.8l4.5,2.6l92.1-45.8l44.5,15.7l82-43.7
			l-14.7-49.6l33.1-19.7l88.2,38.1l4.6-2.7l-89.4-38.6l77.6-86l43.3,33.5l70.4-41.7l90.4,21.8l5.4-3.1L1393.1,741z M1198.5,838
			l-169.1-73l117.6-60.6l21.9-47.7l75.9,14.3l11.3,64.2l20.7,16L1198.5,838z"/>
		<polygon class="st30" points="984.3,923 969.5,913.8 910.1,919.2 920,883 910.4,877 895.5,931.1 		"/>
		<ellipse transform="matrix(0.866 -0.5 0.5 0.866 -236.7123 684.6099)" class="st64" cx="1159.1" cy="784" rx="179" ry="77"/>
		<path class="st65" d="M1251.4,635.4l-6.5,4.8l-13.1,9.5c0,0-50.3-22.8-71-20.1s-30.3-8.5-30.3-8.5l6.7-9.1l13.6-18.4
			c19.6-11.7,41.9-6.4,56.7,4.8s36.6,24.9,36.6,24.9L1251.4,635.4z"/>
		<path class="st66" d="M1244.9,640.2l-13.1,9.5c0,0-50.3-22.8-71-20.1s-30.3-8.5-30.3-8.5l6.7-9.1c11,0.1,26.8,0.6,39.6,2.8
			C1193.8,617.6,1224.9,630.5,1244.9,640.2z"/>
		<path class="st65" d="M1131,649.7c-7.8,13.9-14.8,23.9-14.8,23.9c10.6,28.1,6.4,60.9,0,79s-12.7,39.7-12.7,39.7h-22.3l-2.6-99.6
			c-1-3.7-1.7-7.5-2-11.4c-3.2-36.8,17.8-87.7,17.8-87.7l56.2,10.1C1147,619,1138.6,636.2,1131,649.7z"/>
		<path class="st66" d="M1116.3,673.6c10.6,28.1,6.4,60.9,0,79s-12.7,39.7-12.7,39.7h-22.3l-2.6-99.6c-1-3.7-1.7-7.5-2-11.4
			c11.6,3.8,14.6-0.8,25.2-11.4c5.8-5.8,18-13.6,29.1-20.2C1123.2,663.6,1116.3,673.6,1116.3,673.6z"/>
		<path class="st67" d="M1078.9,486c0,0-3.2,57.2,18.6,83.5l-5,26c0,0,18.3,17.8,45.6,19.1s28.6-2.6,28.6-2.6
			c2.3-10.6,5.4-21.1,9.3-31.3c5.8-14.8,26.5-62.5,7.9-86.6L1078.9,486z"/>
		<polygon class="st66" points="1184.4,500.4 1175.9,506.7 1172.4,519.4 1184.4,523.1 1187.1,504.8 		"/>
		<path class="st65" d="M1255.1,437.4c-7.8,11.7-46.6,73.1-46.6,73.1l-2.6,17.8c-0.2,1.9-0.9,3.7-2.2,5.1c-0.8,0.9-1.9,1.4-3.1,1.6
			c-4.9,0.9-24.7,0-24.7,0s-4.2-1.4-5.1-5.7c-0.1-0.4-0.2-0.8-0.2-1.2c-0.8-4.3-1.4-10.8-1.4-10.8s0.7-3,5.5-1.2
			c2.5,1,5.1,1.6,7.8,1.6l-0.5-7.1c0,0-1.8-8.5,3.9-11.1s14.3-1.8,14.3-1.8s3.5-26.4,13.5-49.4c3.5-8.1,7.8-15.8,13-21.8
			c0,0-17.8-16.4-26.8-32.3c0,0-4.5,4.2-9.5,14.6h-23.1l-95.1-24.6l-1.3,1.6l0,0l-22.8,27l10.1,17l15.4,1.6c1.6,0,3.1,0.5,4.4,1.4
			c1.2,0.8,2.2,1.8,3,3c0.5,0.8,1,1.6,1.4,2.5l4.8,16.4c0,0-0.3,3.7-4.8,4.2c-0.3,2.1-1.6,3.9-3.6,4.7c-0.5,0.2-1,0.3-1.4,0.4
			c0,0-1.9,4.5-8,4.8c0,0-2.7,1.1-7.2-1.3s-12.2-7.7-12.2-7.7l-3.4-15.1l-27.3-14.6c0,0-10.9-5.3-6.4-19.6s28.6-52.7,30.5-64.4
			s3.4-26.5,19.1-34.7c5.8-2.9,12-4.9,18.4-5.9c4.6-0.7,9.2-1.1,13.8-1.1c1.4,0,2.2,0.1,2.2,0.1l48.7,2.9
			c5.9,4.3,12.1,8.1,18.5,11.5c4.7,2.5,9.6,4.5,14.7,6.1c0.6,0.2,1.3,0.4,1.9,0.6c16.2,5.1,31.4,12.5,47.3,36.9
			c16.6,25.4,29.3,53.4,29.3,53.4S1262.9,425.8,1255.1,437.4z"/>
		<path class="st66" d="M1100.8,318.6c0,0-0.1,7.6,3.1,13.2c2,3.5,2.2,11.6,2.2,17.2c0,3.2,2.5,5.9,5.7,5.9c0,0,0.1,0,0.1,0l0,0
			c2.3,0,4.4-1.4,5.3-3.5c2.2-5,6.5-14.4,10.9-21.1c6.2-9.5,17.3-23,17.3-23l-0.9-14.1L1100.8,318.6z"/>
		<path class="st66" d="M1248.7,426.9c-13.7,3.3-26.1,10.8-35.3,21.5c3.5-8.1,7.8-15.8,13-21.8c0,0-17.8-16.4-26.8-32.3
			c0,0-4.5,4.2-9.5,14.6h-22.3c2-6.8,5-16.2,7.4-20.5c4-7.2,8.9-9.3,13.2-8.2s6.2,6.2,21.5,5
			C1210.1,385.2,1216.7,417.4,1248.7,426.9z"/>
		<path class="st66" d="M1203.7,533.5c-0.8,0.9-1.9,1.4-3.1,1.6c-4.9,0.9-24.7,0-24.7,0s-4.2-1.4-5.1-5.7c-0.1-0.4-0.2-0.8-0.2-1.2
			c11.8-0.1,16-2.3,16-2.3L1203.7,533.5z"/>
		<path class="st66" d="M1070.7,385.9L1070.7,385.9l-22.8,27c0,0-5.8-6.1-13.8-6.1c0,0,13-11.7,17-19.6s1.5-33.5,14.4-39
			C1064.7,359.9,1067.6,373.4,1070.7,385.9z"/>
		<path class="st66" d="M1086.9,454.7c0,0-0.3,3.7-4.8,4.2c-0.3,2.1-1.6,3.9-3.6,4.7c-0.5,0.2-1,0.3-1.4,0.4c0,0-1.9,4.5-8,4.8
			c0,0-2.7,1.1-7.2-1.3s-12.2-7.7-12.2-7.7c10.3,0.1,13.5-2.1,17.2-4.9s6-4.1,9.3-1.5s4.9,2.1,4.9,2.1c4.9-1.6,1.7-6.6-1.4-11.9
			c-1.7-2.9-0.5-5.8,1-7.8c0.5,0.8,1,1.6,1.4,2.5L1086.9,454.7z"/>
		<path class="st68" d="M1183.8,494c0,0-8.8,14.6-28.9,20.9s-44.5-1.3-58.3-8.7c-8.2-4.4-14.5-11.5-17.8-20.2c0,0-0.1-9.8-0.4-22.3
			c1.9-0.8,3.3-2.6,3.6-4.7c4.5-0.5,4.8-4.2,4.8-4.2l-1.6-5.4l-3.2-11c-0.4-0.9-0.8-1.7-1.4-2.5c-0.8-1.2-1.8-2.2-3-3
			c-0.3-7.8-0.6-14.5-0.9-18.6c-0.7-5.9-1.8-11.8-3.4-17.5c-0.9-3.5-1.8-7.1-2.7-10.8l0,0l1.3-1.6l95.1,24.6h23.1
			c0,0-12.4,33.9-15.1,46.6S1183.8,494,1183.8,494z"/>
		<path class="st68" d="M1190.1,408.9h-22.9l-95.1-24.6l-1.3,1.6c-3.1-12.5-6-26-5.2-37.7c0-0.7,0.1-1.4,0.2-2.1
			c1.7-16,10.3-32.6,15-40.6c4.6-0.7,9.2-1.1,13.8-1.1c-1.2,3.8-2.8,8.6-4.7,14.1c-5.5,15.9-5,33.9,9.9,44.3s33-1.4,41-10.2
			c6.2-6.9,18.2-25.7,23.3-33.7c4.7,2.5,9.6,4.5,14.7,6.1c0.6,0.2,1.3,0.4,1.9,0.6c-20.7,23.4-15.1,61.9-11.6,72.4
			C1172.5,408.6,1188.6,408.9,1190.1,408.9z"/>
		<path class="st69" d="M1086.3,252.6c-0.3-2.4,0-4.9,1-7.1c1.6-3.9,9.4-15.2,18.6-20.7s35.8-7.1,48.2,12.4s-3.2,49.3-3.2,49.3
			l-33.9,11.8L1086.3,252.6z"/>
		<path class="st65" d="M1152.6,284.1c-0.2,3.3-2.4,6-5.6,6.9c-2.4,14.8-26.8,31.8-32.8,33.4c-2,0.6-4.2,0.8-6.3,0.6
			c-5.4-0.7-11.8-5.5-17.3-23.7c-3.2-10.8-5-22.1-5.1-33.4c-0.1-5.1,0.2-10.3,0.8-15.4c1.1-2,5.8-0.6,7.2,5.3
			c2.1,9.1,15.6,9.5,20.7,4.6s9.4-3.4,10.4-0.2c1.4,4.5,3.1,6.3,8,9.2c2.7,1.6,4.1,5.8,4.8,9.2c0.3,1.3,1.6,2.2,2.9,2
			c0.5-0.1,1-0.4,1.4-0.8l2.1-2.2c0,0,0.3-7.6,4.8-7.6S1153.1,278.3,1152.6,284.1z"/>
		<path class="st66" d="M1107.9,325c-5.4-0.7-11.8-5.5-17.3-23.7c-3.2-10.8-5-22.1-5.1-33.4c6.3,5.3,9.3,13.6,8,21.7
			c-2.1,14.1-1.8,12.5,2,14.4C1095.5,304.1,1096.7,318.8,1107.9,325z"/>
		<path class="st70" d="M1079.4,798.6v-24.9c0,0,7.4,2.7,13.5,2.9c5.6,0.2,11.1-0.7,16.3-2.9l-2.2,17.5l0.3,16.2l-18,13
			L1079.4,798.6z"/>
		<path class="st67" d="M1108.3,831.5c-8.2,4.8-9,11.7-12.5,17.2s-19.1,25.7-43.4,24.7c-12.1-0.5-16.1-6.7-16.2-13.8
			s3.7-15.3,7-19.6c6.6-8.5,16.9-15.9,22.3-24.9s6.1-19.9,6.1-19.9s10.9-4,21.5,6.1c0,0,3.2,5.6,7.2,4.5s6.9-14.6,6.9-14.6l6.2,27.2
			l0.3,1.4C1113.6,819.8,1116.5,826.7,1108.3,831.5z"/>
		<path class="st70" d="M1108.3,831.5c-8.2,4.8-9,11.7-12.5,17.2s-19.1,25.7-43.4,24.7c-12.1-0.5-16.1-6.7-16.2-13.8
			c1.9,4,5.6,7.7,12.6,7.7c15.4,0,33.9-10.6,41.1-24.7c7-13.7,12.6-19.1,23.5-24.2l0.3,1.4C1113.6,819.8,1116.5,826.7,1108.3,831.5z
			"/>
		<path class="st67" d="M1274.4,661.1c-6.6,6.9-13.2,22.5-19.6,34.4c-6,11.2-26.7,31.5-36.4,19.9c-0.7-0.8-1.3-1.7-1.7-2.6
			c-8.7-17,11.9-40.5,14.3-48.8s-3.3-16.1-3.3-16.1l10-25l31.5,1.9c0,0,6.1,0,11.4,10.3c0.3,0.6,0.6,1.1,0.8,1.7
			C1285.3,646.5,1280.7,654.6,1274.4,661.1z"/>
		<path class="st70" d="M1274.4,661.1c-6.6,6.9-13.2,22.5-19.6,34.4c-6,11.2-26.7,31.5-36.4,19.9c10.1,0.3,20.7-3.3,28.7-15.6
			c9.6-14.6,17.8-38.1,23.3-47.7c3.2-5.4,6.8-10.5,10.8-15.2C1285.3,646.5,1280.7,654.6,1274.4,661.1z"/>
		<path class="st70" d="M1227.6,647.9c0,0,7.8-7.6,16.1,4.2c0,0,1.9-17.2,0.3-28.9l-9.6-6.2c0,0-2.5,22.8-14.8,27.5L1227.6,647.9z"
			/>
		<path class="st30" d="M1155.1,414.2v49.5c0,0-42.9,7-69.8-14.3l-3.2-11c-0.4-0.9-0.8-1.7-1.4-2.5c-0.8-1.2-1.8-2.2-3-3
			c-0.3-7.8-0.6-14.5-0.9-18.6c-0.7-5.9-1.8-11.8-3.4-17.5C1082.1,402.9,1111.2,420.6,1155.1,414.2z"/>
		<g class="st71">
			
				<linearGradient id="SVGID_00000114757976876747294790000015645320474741460129_" gradientUnits="userSpaceOnUse" x1="1497.79" y1="185.3" x2="1625.14" y2="185.3" gradientTransform="matrix(1 0 0 -1 0 1080)">
				<stop  offset="0" style="stop-color:#FFB677"/>
				<stop  offset="0.12" style="stop-color:#FDAE75"/>
				<stop  offset="0.32" style="stop-color:#F9976E"/>
				<stop  offset="0.55" style="stop-color:#F27263"/>
				<stop  offset="0.82" style="stop-color:#E83F54"/>
				<stop  offset="0.98" style="stop-color:#E11D4A"/>
			</linearGradient>
			<polygon style="fill:url(#SVGID_00000114757976876747294790000015645320474741460129_);" points="1625.1,921.8 1603.8,908.6 
				1518.7,916.4 1532.8,864.4 1519.1,855.9 1497.8,933.5 			"/>
		</g>
		<g class="st71">
			
				<linearGradient id="SVGID_00000111163007827898292390000005713030734454429077_" gradientUnits="userSpaceOnUse" x1="1592.78" y1="243.89" x2="1720.13" y2="243.89" gradientTransform="matrix(1 0 0 -1 0 1080)">
				<stop  offset="0" style="stop-color:#FFB677"/>
				<stop  offset="0.12" style="stop-color:#FDAE75"/>
				<stop  offset="0.32" style="stop-color:#F9976E"/>
				<stop  offset="0.55" style="stop-color:#F27263"/>
				<stop  offset="0.82" style="stop-color:#E83F54"/>
				<stop  offset="0.98" style="stop-color:#E11D4A"/>
			</linearGradient>
			<polygon style="fill:url(#SVGID_00000111163007827898292390000005713030734454429077_);" points="1720.1,863.2 1698.8,850 
				1613.6,857.8 1627.8,805.8 1614.1,797.3 1592.8,874.9 			"/>
		</g>
		<g class="st71">
			
				<linearGradient id="SVGID_00000137099060262861626470000009562758475969025716_" gradientUnits="userSpaceOnUse" x1="1686.24" y1="298.935" x2="1813.59" y2="298.935" gradientTransform="matrix(1 0 0 -1 0 1080)">
				<stop  offset="0" style="stop-color:#FFB677"/>
				<stop  offset="0.12" style="stop-color:#FDAE75"/>
				<stop  offset="0.32" style="stop-color:#F9976E"/>
				<stop  offset="0.55" style="stop-color:#F27263"/>
				<stop  offset="0.82" style="stop-color:#E83F54"/>
				<stop  offset="0.98" style="stop-color:#E11D4A"/>
			</linearGradient>
			<polygon style="fill:url(#SVGID_00000137099060262861626470000009562758475969025716_);" points="1813.6,808.2 1792.2,794.9 
				1707.1,802.7 1721.3,750.8 1707.6,742.3 1686.2,819.9 			"/>
		</g>
		<g class="st71">
			
				<linearGradient id="SVGID_00000074422237682476824140000009682168250888218008_" gradientUnits="userSpaceOnUse" x1="1782.13" y1="353.22" x2="1909.48" y2="353.22" gradientTransform="matrix(1 0 0 -1 0 1080)">
				<stop  offset="0" style="stop-color:#FFB677"/>
				<stop  offset="0.12" style="stop-color:#FDAE75"/>
				<stop  offset="0.32" style="stop-color:#F9976E"/>
				<stop  offset="0.55" style="stop-color:#F27263"/>
				<stop  offset="0.82" style="stop-color:#E83F54"/>
				<stop  offset="0.98" style="stop-color:#E11D4A"/>
			</linearGradient>
			<polygon style="fill:url(#SVGID_00000074422237682476824140000009682168250888218008_);" points="1909.5,753.9 1888.2,740.7 
				1803,748.5 1817.2,696.5 1803.5,688 1782.1,765.6 			"/>
		</g>
		<g class="st71">
			
				<linearGradient id="SVGID_00000041259452702352510250000012131818797518603940_" gradientUnits="userSpaceOnUse" x1="298.86" y1="98.11" x2="426.21" y2="98.11" gradientTransform="matrix(1 0 0 -1 0 1080)">
				<stop  offset="0" style="stop-color:#FFB677"/>
				<stop  offset="0.12" style="stop-color:#FDAE75"/>
				<stop  offset="0.32" style="stop-color:#F9976E"/>
				<stop  offset="0.55" style="stop-color:#F27263"/>
				<stop  offset="0.82" style="stop-color:#E83F54"/>
				<stop  offset="0.98" style="stop-color:#E11D4A"/>
			</linearGradient>
			<polygon style="fill:url(#SVGID_00000041259452702352510250000012131818797518603940_);" points="426.2,1009 404.9,995.8 
				319.7,1003.6 333.9,951.6 320.2,943.1 298.9,1020.7 			"/>
		</g>
		<g class="st71">
			
				<linearGradient id="SVGID_00000155147320654961632050000010297628859955057337_" gradientUnits="userSpaceOnUse" x1="393.54" y1="152.78" x2="520.89" y2="152.78" gradientTransform="matrix(1 0 0 -1 0 1080)">
				<stop  offset="0" style="stop-color:#FFB677"/>
				<stop  offset="0.12" style="stop-color:#FDAE75"/>
				<stop  offset="0.32" style="stop-color:#F9976E"/>
				<stop  offset="0.55" style="stop-color:#F27263"/>
				<stop  offset="0.82" style="stop-color:#E83F54"/>
				<stop  offset="0.98" style="stop-color:#E11D4A"/>
			</linearGradient>
			<polygon style="fill:url(#SVGID_00000155147320654961632050000010297628859955057337_);" points="520.9,954.4 499.5,941.1 
				414.4,948.9 428.6,896.9 414.9,888.4 393.5,966 			"/>
		</g>
		<g class="st71">
			
				<linearGradient id="SVGID_00000093896540436241857480000012208146173428095382_" gradientUnits="userSpaceOnUse" x1="488.21" y1="206.61" x2="615.56" y2="206.61" gradientTransform="matrix(1 0 0 -1 0 1080)">
				<stop  offset="0" style="stop-color:#FFB677"/>
				<stop  offset="0.12" style="stop-color:#FDAE75"/>
				<stop  offset="0.32" style="stop-color:#F9976E"/>
				<stop  offset="0.55" style="stop-color:#F27263"/>
				<stop  offset="0.82" style="stop-color:#E83F54"/>
				<stop  offset="0.98" style="stop-color:#E11D4A"/>
			</linearGradient>
			<polygon style="fill:url(#SVGID_00000093896540436241857480000012208146173428095382_);" points="615.6,900.5 594.2,887.3 
				509.1,895.1 523.2,843.1 509.5,834.6 488.2,912.2 			"/>
		</g>
		<g class="st71">
			
				<linearGradient id="SVGID_00000181795582115839621340000007172732889614042009_" gradientUnits="userSpaceOnUse" x1="579.61" y1="259.64" x2="706.96" y2="259.64" gradientTransform="matrix(1 0 0 -1 0 1080)">
				<stop  offset="0" style="stop-color:#FFB677"/>
				<stop  offset="0.12" style="stop-color:#FDAE75"/>
				<stop  offset="0.32" style="stop-color:#F9976E"/>
				<stop  offset="0.55" style="stop-color:#F27263"/>
				<stop  offset="0.82" style="stop-color:#E83F54"/>
				<stop  offset="0.98" style="stop-color:#E11D4A"/>
			</linearGradient>
			<polygon style="fill:url(#SVGID_00000181795582115839621340000007172732889614042009_);" points="707,847.5 685.6,834.2 
				600.5,842 614.6,790.1 601,781.5 579.6,859.2 			"/>
		</g>
	</g>
</g>
</svg>
